<?xml version="1.0" encoding="utf-8"?>
<!-- Generator: Adobe Illustrator 23.0.5, SVG Export Plug-In . SVG Version: 6.00 Build 0)  -->
<svg version="1.1" id="Layer_1" xmlns="http://www.w3.org/2000/svg" xmlns:xlink="http://www.w3.org/1999/xlink" x="0px" y="0px"
	 viewBox="0 0 1400 980" style="enable-background:new 0 0 1400 980;" xml:space="preserve">
<style type="text/css">
	.st0{fill-rule:evenodd;clip-rule:evenodd;fill:#ED212A;}
	.st1{fill-rule:evenodd;clip-rule:evenodd;fill:url(#SVGID_1_);}
	.st2{fill-rule:evenodd;clip-rule:evenodd;fill:url(#SVGID_2_);}
	.st3{fill-rule:evenodd;clip-rule:evenodd;fill:url(#SVGID_3_);}
	.st4{fill-rule:evenodd;clip-rule:evenodd;fill:url(#SVGID_4_);}
	.st5{fill-rule:evenodd;clip-rule:evenodd;fill:url(#SVGID_5_);}
	.st6{fill-rule:evenodd;clip-rule:evenodd;fill:url(#SVGID_6_);}
	.st7{fill-rule:evenodd;clip-rule:evenodd;fill:url(#SVGID_7_);}
	.st8{fill-rule:evenodd;clip-rule:evenodd;fill:url(#SVGID_8_);}
	.st9{fill-rule:evenodd;clip-rule:evenodd;fill:url(#SVGID_9_);}
	.st10{fill-rule:evenodd;clip-rule:evenodd;fill:url(#SVGID_10_);}
	.st11{fill-rule:evenodd;clip-rule:evenodd;fill:url(#SVGID_11_);}
	.st12{fill-rule:evenodd;clip-rule:evenodd;fill:url(#SVGID_12_);}
	.st13{fill-rule:evenodd;clip-rule:evenodd;fill:url(#SVGID_13_);}
	.st14{fill-rule:evenodd;clip-rule:evenodd;fill:url(#SVGID_14_);}
	.st15{fill-rule:evenodd;clip-rule:evenodd;fill:url(#SVGID_15_);}
	.st16{fill-rule:evenodd;clip-rule:evenodd;fill:url(#SVGID_16_);}
	.st17{fill-rule:evenodd;clip-rule:evenodd;fill:url(#SVGID_17_);}
	.st18{fill-rule:evenodd;clip-rule:evenodd;fill:url(#SVGID_18_);}
	.st19{fill-rule:evenodd;clip-rule:evenodd;fill:url(#SVGID_19_);}
	.st20{fill-rule:evenodd;clip-rule:evenodd;fill:url(#SVGID_20_);}
	.st21{fill-rule:evenodd;clip-rule:evenodd;fill:url(#SVGID_21_);}
	.st22{fill-rule:evenodd;clip-rule:evenodd;fill:url(#SVGID_22_);}
	.st23{fill-rule:evenodd;clip-rule:evenodd;fill:url(#SVGID_23_);}
	.st24{fill-rule:evenodd;clip-rule:evenodd;fill:url(#SVGID_24_);}
	.st25{fill-rule:evenodd;clip-rule:evenodd;fill:url(#SVGID_25_);}
	.st26{fill-rule:evenodd;clip-rule:evenodd;fill:url(#SVGID_26_);}
	.st27{fill-rule:evenodd;clip-rule:evenodd;fill:url(#SVGID_27_);}
	.st28{fill-rule:evenodd;clip-rule:evenodd;fill:url(#SVGID_28_);}
	.st29{fill-rule:evenodd;clip-rule:evenodd;fill:url(#SVGID_29_);}
	.st30{fill-rule:evenodd;clip-rule:evenodd;fill:url(#SVGID_30_);}
	.st31{fill:none;}
	.st32{font-family:'OpenSans-Bold';}
	.st33{font-size:18px;}
	.st34{fill-rule:evenodd;clip-rule:evenodd;fill:url(#SVGID_31_);}
	.st35{fill-rule:evenodd;clip-rule:evenodd;fill:url(#SVGID_32_);}
</style>
<g>
	<polygon class="st0" points="474,245.5 401.2,245.5 401.2,301.2 474,301.2 456.6,273.4 	"/>
	<polygon class="st0" points="91.9,245.5 164.7,245.5 164.7,301.2 91.9,301.2 109.3,273.4 	"/>
	
		<linearGradient id="SVGID_1_" gradientUnits="userSpaceOnUse" x1="140.5862" y1="689.2256" x2="164.7497" y2="689.2256" gradientTransform="matrix(1 0 0 -1 0 979.2756)">
		<stop  offset="0" style="stop-color:#9C1C22"/>
		<stop  offset="1" style="stop-color:#B3232A"/>
	</linearGradient>
	<path class="st1" d="M164.7,278.9c-1.6,0-24.2,0-24.2,0l24.2,22.3V278.9z"/>
	
		<linearGradient id="SVGID_2_" gradientUnits="userSpaceOnUse" x1="401.2" y1="689.2256" x2="425.3635" y2="689.2256" gradientTransform="matrix(1 0 0 -1 0 979.2756)">
		<stop  offset="0" style="stop-color:#9C1C22"/>
		<stop  offset="1" style="stop-color:#B3232A"/>
	</linearGradient>
	<path class="st2" d="M401.2,278.9c1.6,0,24.2,0,24.2,0l-24.2,22.3V278.9z"/>
	<polygon class="st0" points="140.6,223.2 283,223.2 425.4,223.2 425.4,278.9 283,278.9 140.6,278.9 	"/>
</g>
<g>
	<polygon class="st0" points="453.7,344.2 380.9,354.7 380.9,410.4 453.7,399.9 436.3,374.6 	"/>
	<polygon class="st0" points="112.2,435.4 185.1,425 185.1,480.7 112.2,491.1 129.7,460.8 	"/>
	
		<linearGradient id="SVGID_3_" gradientUnits="userSpaceOnUse" x1="160.9276" y1="509.7256" x2="185.0912" y2="509.7256" gradientTransform="matrix(1 0 0 -1 0 979.2756)">
		<stop  offset="0" style="stop-color:#9C1C22"/>
		<stop  offset="1" style="stop-color:#B3232A"/>
	</linearGradient>
	<path class="st3" d="M185.1,458.4c-1.6,0.2-24.2,3.5-24.2,3.5l24.2,18.8V458.4z"/>
	<polygon class="st0" points="160.9,406.2 405,371.1 405,426.8 160.9,461.8 	"/>
	
		<linearGradient id="SVGID_4_" gradientUnits="userSpaceOnUse" x1="380.8615" y1="614.6256" x2="405.025" y2="614.6256" gradientTransform="matrix(1 0 0 -1 0 979.2756)">
		<stop  offset="0" style="stop-color:#9C1C22"/>
		<stop  offset="1" style="stop-color:#B3232A"/>
	</linearGradient>
	<polygon class="st4" points="380.9,354.7 405,371.1 380.9,374.6 	"/>
</g>
<g>
	<polygon class="st0" points="474,572.3 401.2,572.3 401.2,628 474,628 456.6,600.1 	"/>
	<polygon class="st0" points="91.9,572.3 164.7,572.3 164.7,628 91.9,628 109.3,600.1 	"/>
	
		<linearGradient id="SVGID_5_" gradientUnits="userSpaceOnUse" x1="140.5862" y1="364.0256" x2="164.7497" y2="364.0256" gradientTransform="matrix(1 0 0 -1 0 979.2756)">
		<stop  offset="0" style="stop-color:#9C1C22"/>
		<stop  offset="1" style="stop-color:#B3232A"/>
	</linearGradient>
	<path class="st5" d="M164.7,602.5c-1.6,0-24.2,3.2-24.2,3.2l24.2,22.3V602.5z"/>
	
		<linearGradient id="SVGID_6_" gradientUnits="userSpaceOnUse" x1="401.2" y1="364.0256" x2="425.3635" y2="364.0256" gradientTransform="matrix(1 0 0 -1 0 979.2756)">
		<stop  offset="0" style="stop-color:#9C1C22"/>
		<stop  offset="1" style="stop-color:#B3232A"/>
	</linearGradient>
	<path class="st6" d="M401.2,602.5c1.6,0,24.2,3.2,24.2,3.2L401.2,628V602.5z"/>
	<polygon class="st0" points="140.6,550 283,531.3 425.4,550 425.4,605.7 283,587 140.6,605.7 	"/>
</g>
<g>
	<polygon class="st0" points="449.8,711.2 391.2,711.2 391.2,770.1 449.8,770.1 435,740.6 	"/>
	
		<linearGradient id="SVGID_7_" gradientUnits="userSpaceOnUse" x1="391.2473" y1="214.6256" x2="416.7967" y2="214.6256" gradientTransform="matrix(1 0 0 -1 0 979.2756)">
		<stop  offset="0" style="stop-color:#9C1C22"/>
		<stop  offset="1" style="stop-color:#B3232A"/>
	</linearGradient>
	<path class="st7" d="M391.2,759.2c1.7,0,25.5,0,25.5,0l-25.5,10.9V759.2z"/>
	<polygon class="st0" points="416.8,700.3 358.2,700.3 358.2,759.2 416.8,759.2 416.8,729.8 	"/>
	
		<linearGradient id="SVGID_8_" gradientUnits="userSpaceOnUse" x1="358.2" y1="225.5256" x2="383.7494" y2="225.5256" gradientTransform="matrix(1 0 0 -1 0 979.2756)">
		<stop  offset="0" style="stop-color:#9C1C22"/>
		<stop  offset="1" style="stop-color:#B3232A"/>
	</linearGradient>
	<path class="st8" d="M358.2,748.3c1.7,0,25.5,0,25.5,0l-25.5,10.9V748.3z"/>
	<polygon class="st0" points="116.1,711.2 174.7,711.2 174.7,770.1 116.1,770.1 131,740.6 	"/>
	
		<linearGradient id="SVGID_9_" gradientUnits="userSpaceOnUse" x1="149.156" y1="214.6256" x2="174.7058" y2="214.6256" gradientTransform="matrix(1 0 0 -1 0 979.2756)">
		<stop  offset="0" style="stop-color:#9C1C22"/>
		<stop  offset="1" style="stop-color:#B3232A"/>
	</linearGradient>
	<path class="st9" d="M174.7,759.2c-1.7,0-25.5,0-25.5,0l25.5,10.9V759.2z"/>
	<polygon class="st0" points="149.2,700.3 207.7,700.3 207.7,759.2 149.2,759.2 149.2,729.8 	"/>
	
		<linearGradient id="SVGID_10_" gradientUnits="userSpaceOnUse" x1="182.2" y1="225.4256" x2="207.7487" y2="225.4256" gradientTransform="matrix(1 0 0 -1 0 979.2756)">
		<stop  offset="0" style="stop-color:#9C1C22"/>
		<stop  offset="1" style="stop-color:#B3232A"/>
	</linearGradient>
	<path class="st10" d="M207.7,748.4c-1.7,0-25.5,0-25.5,0l25.5,10.9V748.4z"/>
	<rect x="182.2" y="689.5" class="st0" width="201.6" height="58.9"/>
</g>
<g>
	<path class="st0" d="M914.1,257c-24.3,0-48.6,0-72.8,0c0,18.6,0,37.1,0,55.7c24.3,0,48.6,0,72.8,0c-5.8-9.3-11.6-18.6-17.4-27.8
		C902.5,275.6,908.3,266.3,914.1,257z"/>
	<path class="st0" d="M532,257c24.3,0,48.6,0,72.8,0c0,18.6,0,37.1,0,55.7c-24.3,0-48.6,0-72.8,0c5.8-9.3,11.6-18.6,17.4-27.8
		C543.6,275.6,537.8,266.3,532,257z"/>
	
		<linearGradient id="SVGID_11_" gradientUnits="userSpaceOnUse" x1="580.2194" y1="678.5479" x2="604.7976" y2="678.5479" gradientTransform="matrix(1 0 0 -1 0 979.2756)">
		<stop  offset="0" style="stop-color:#9C1C22"/>
		<stop  offset="1" style="stop-color:#B3232A"/>
	</linearGradient>
	<path class="st11" d="M604.8,290.4c-1.6,0-28.2-3.7-24.2,0s16.1,14.9,24.2,22.3C604.8,305.3,604.8,297.8,604.8,290.4z"/>
	
		<linearGradient id="SVGID_12_" gradientUnits="userSpaceOnUse" x1="841.2509" y1="678.5479" x2="865.8292" y2="678.5479" gradientTransform="matrix(1 0 0 -1 0 979.2756)">
		<stop  offset="0" style="stop-color:#9C1C22"/>
		<stop  offset="1" style="stop-color:#B3232A"/>
	</linearGradient>
	<path class="st12" d="M841.3,290.4c1.6,0,28.2-3.7,24.2,0s-16.1,14.9-24.2,22.3C841.3,305.3,841.3,297.8,841.3,290.4z"/>
	<path class="st0" d="M580.6,234.7c47.5,0,94.9-23,142.4-23s94.9,23,142.4,23c0,18.6,0,37.1,0,55.7c-47.5,0-94.9-23-142.4-23
		s-94.9,23-142.4,23C580.6,271.8,580.6,253.3,580.6,234.7z"/>
</g>
<g>
	<path class="st0" d="M914.1,400.6c-24.3,0-48.6,0-72.8,0c0,18.6,0,37.1,0,55.7c24.3,0,48.6,0,72.8,0c-5.8-9.3-11.6-18.6-17.4-27.8
		C902.5,419.2,908.3,409.9,914.1,400.6z"/>
	<path class="st0" d="M532,400.6c24.3,0,48.6,0,72.8,0c0,18.6,0,37.1,0,55.7c-24.3,0-48.6,0-72.8,0c5.8-9.3,11.6-18.6,17.4-27.8
		C543.6,419.2,537.8,409.9,532,400.6z"/>
	
		<linearGradient id="SVGID_13_" gradientUnits="userSpaceOnUse" x1="580.2194" y1="534.9478" x2="604.7976" y2="534.9478" gradientTransform="matrix(1 0 0 -1 0 979.2756)">
		<stop  offset="0" style="stop-color:#9C1C22"/>
		<stop  offset="1" style="stop-color:#B3232A"/>
	</linearGradient>
	<path class="st13" d="M604.8,434c-1.6,0-28.2-3.7-24.2,0s16.1,14.9,24.2,22.3C604.8,448.9,604.8,441.4,604.8,434z"/>
	
		<linearGradient id="SVGID_14_" gradientUnits="userSpaceOnUse" x1="841.2509" y1="534.9478" x2="865.8292" y2="534.9478" gradientTransform="matrix(1 0 0 -1 0 979.2756)">
		<stop  offset="0" style="stop-color:#9C1C22"/>
		<stop  offset="1" style="stop-color:#B3232A"/>
	</linearGradient>
	<path class="st14" d="M841.3,434c1.6,0,28.2-3.7,24.2,0s-16.1,14.9-24.2,22.3C841.3,448.9,841.3,441.4,841.3,434z"/>
	<path class="st0" d="M580.6,434c47.5,0,94.9,23,142.4,23s94.9-23,142.4-23c0-18.6,0-37.1,0-55.7c-47.5,0-94.9,23-142.4,23
		s-94.9-23-142.4-23C580.6,396.9,580.6,415.4,580.6,434z"/>
</g>
<g>
	<path class="st0" d="M900.1,523c-28.5,7.6-46.3,12.1-70.1,15.8v55.7c23.8-3.7,41.5-8.2,70.1-15.8L887,555.2L900.1,523z"/>
	
		<linearGradient id="SVGID_15_" gradientUnits="userSpaceOnUse" x1="830" y1="426.3756" x2="865.4" y2="426.3756" gradientTransform="matrix(1 0 0 -1 0 979.2756)">
		<stop  offset="0" style="stop-color:#9C1C22"/>
		<stop  offset="1" style="stop-color:#B3232A"/>
	</linearGradient>
	<path class="st15" d="M865.4,558.3L830,538.7v28.4C841.3,564.6,853.1,561.6,865.4,558.3z"/>
	<path class="st0" d="M546,523c28.5,7.6,46.3,12.1,70.1,15.8v55.7c-23.8-3.7-41.5-8.2-70.1-15.8l13.1-23.5L546,523z"/>
	<path class="st0" d="M580.6,558.3c111,29.7,173.7,29.8,284.8,0c0,18.6,0,37.1,0,55.7c-111.1,29.8-173.8,29.7-284.8,0
		C580.6,595.4,580.6,576.9,580.6,558.3z"/>
	
		<linearGradient id="SVGID_16_" gradientUnits="userSpaceOnUse" x1="580.6" y1="426.3756" x2="616" y2="426.3756" gradientTransform="matrix(1 0 0 -1 0 979.2756)">
		<stop  offset="0" style="stop-color:#9C1C22"/>
		<stop  offset="1" style="stop-color:#B3232A"/>
	</linearGradient>
	<path class="st16" d="M580.6,558.3l35.4-19.6v28.4C604.7,564.6,593,561.6,580.6,558.3z"/>
</g>
<g>
	<path class="st0" d="M916.8,723.2c-18.5,0-36.9,0-55.4,0c0,18.5,0,37.1,0,55.6c18.5,0,36.9,0,55.4,0c-4.7-9.3-9.4-18.5-14.1-27.8
		C907.4,741.7,912.1,732.4,916.8,723.2z"/>
	
		<linearGradient id="SVGID_17_" gradientUnits="userSpaceOnUse" x1="861.4" y1="205.5256" x2="885.5535" y2="205.5256" gradientTransform="matrix(1 0 0 -1 0 979.2756)">
		<stop  offset="0" style="stop-color:#9C1C22"/>
		<stop  offset="1" style="stop-color:#B3232A"/>
	</linearGradient>
	<path class="st17" d="M861.4,768.6c1.6,0,24.2,0,24.2,0c-8.1,3.4-16.1,6.8-24.2,10.3C861.4,775.4,861.4,772,861.4,768.6z"/>
	<path class="st0" d="M885.5,712.9c-18.5,0-36.9,0-55.4,0c0,18.5,0,37.1,0,55.6c18.5,0,36.9,0,55.4,0c0-9.3,0-18.5,0-27.8
		C885.5,731.5,885.5,722.2,885.5,712.9z"/>
	
		<linearGradient id="SVGID_18_" gradientUnits="userSpaceOnUse" x1="830.1594" y1="215.8256" x2="854.3122" y2="215.8256" gradientTransform="matrix(1 0 0 -1 0 979.2756)">
		<stop  offset="0" style="stop-color:#9C1C22"/>
		<stop  offset="1" style="stop-color:#B3232A"/>
	</linearGradient>
	<path class="st18" d="M830.2,758.3c1.6,0,24.2,0,24.2,0c-8.1,3.4-16.1,6.8-24.2,10.3C830.2,765.1,830.2,761.7,830.2,758.3z"/>
	<path class="st0" d="M529.3,723.2c18.5,0,36.9,0,55.4,0c0,18.5,0,37.1,0,55.6c-18.5,0-36.9,0-55.4,0c4.7-9.3,9.4-18.5,14.1-27.8
		C538.6,741.7,534,732.4,529.3,723.2z"/>
	
		<linearGradient id="SVGID_19_" gradientUnits="userSpaceOnUse" x1="560.5" y1="205.5256" x2="584.6536" y2="205.5256" gradientTransform="matrix(1 0 0 -1 0 979.2756)">
		<stop  offset="0" style="stop-color:#9C1C22"/>
		<stop  offset="1" style="stop-color:#B3232A"/>
	</linearGradient>
	<path class="st19" d="M584.7,768.6c-1.6,0-24.2,0-24.2,0c8.1,3.4,16.1,6.8,24.2,10.3C584.7,775.4,584.7,772,584.7,768.6z"/>
	<path class="st0" d="M560.5,712.9c18.5,0,36.9,0,55.4,0c0,18.5,0,37.1,0,55.6c-18.5,0-36.9,0-55.4,0c0-9.3,0-18.5,0-27.8
		C560.5,731.5,560.5,722.2,560.5,712.9z"/>
	
		<linearGradient id="SVGID_20_" gradientUnits="userSpaceOnUse" x1="591.7356" y1="215.8256" x2="615.8889" y2="215.8256" gradientTransform="matrix(1 0 0 -1 0 979.2756)">
		<stop  offset="0" style="stop-color:#9C1C22"/>
		<stop  offset="1" style="stop-color:#B3232A"/>
	</linearGradient>
	<path class="st20" d="M615.9,758.3c-1.6,0-24.2,0-24.2,0c8.1,3.4,16.1,6.8,24.2,10.3C615.9,765.1,615.9,761.7,615.9,758.3z"/>
	<path class="st0" d="M591.7,702.6c43.8,0,87.5-21.9,131.3-21.9s87.5,21.9,131.3,21.9c0,18.5,0,37.1,0,55.6
		c-43.8,0-87.6-21.9-131.4-21.9c-43.7,0-87.5,21.9-131.2,21.9C591.7,739.7,591.7,721.2,591.7,702.6z"/>
</g>
<g>
	<path class="st0" d="M1303.1,280.7c-24.3,0-46.4-7.8-70.6-7.8c0,18.6,0,37.1,0,55.7c24.3,0,46.4,7.8,70.6,7.8
		c-5.8-9.3-11.6-18.6-17.4-27.8C1291.5,299.2,1297.3,290,1303.1,280.7z"/>
	<path class="st0" d="M977.6,202.2c24.3,0,46.4,8.2,70.6,8.2c0,18.6,0,37.1,0,55.7c-24.3,0-46.4-8.2-70.6-8.2
		c5.8-9.3,11.6-18.6,17.4-27.8C989.2,220.7,983.4,211.4,977.6,202.2z"/>
	
		<linearGradient id="SVGID_21_" gradientUnits="userSpaceOnUse" x1="1024.0381" y1="724.4256" x2="1048.2015" y2="724.4256" gradientTransform="matrix(1 0 0 -1 0 979.2756)">
		<stop  offset="0" style="stop-color:#9C1C22"/>
		<stop  offset="1" style="stop-color:#B3232A"/>
	</linearGradient>
	<path class="st21" d="M1024,243.7c4,3.7,16.1,14.9,24.2,22.3v-20.9C1040.5,244.2,1032.5,243.7,1024,243.7z"/>
	<path class="st0" d="M1024,188.1c95.1,0,137.6,62.5,232.6,62.5c0,18.6,0,37.1,0,55.7c-95.1,0-137.6-62.5-232.6-62.5
		C1024,225.2,1024,206.6,1024,188.1z"/>
	
		<linearGradient id="SVGID_22_" gradientUnits="userSpaceOnUse" x1="1232.5" y1="662.6256" x2="1256.6636" y2="662.6256" gradientTransform="matrix(1 0 0 -1 0 979.2756)">
		<stop  offset="0" style="stop-color:#9C1C22"/>
		<stop  offset="1" style="stop-color:#B3232A"/>
	</linearGradient>
	<path class="st22" d="M1256.7,306.2c-4,3.7-16.1,14.9-24.2,22.3v-23.7C1240.2,305.7,1248.2,306.2,1256.7,306.2z"/>
</g>
<g>
	<path class="st0" d="M1292.2,398.3c-24.3,0-50.5-1.5-70.6-7.8c0,18.6,0,37.1,0,55.7c21.5,5.6,46.4,7.8,70.6,7.8
		c-5.8-9.3-11.6-18.6-17.4-27.8C1280.5,416.9,1286.4,407.6,1292.2,398.3z"/>
	
		<linearGradient id="SVGID_23_" gradientUnits="userSpaceOnUse" x1="1221.5271" y1="575.1756" x2="1245.6907" y2="575.1756" gradientTransform="matrix(1 0 0 -1 0 979.2756)">
		<stop  offset="0" style="stop-color:#9C1C22"/>
		<stop  offset="1" style="stop-color:#B3232A"/>
	</linearGradient>
	<path class="st23" d="M1221.5,390.5v27.2l24.2-7.5C1245.7,410.2,1224.2,395.6,1221.5,390.5z"/>
	<path class="st0" d="M988.5,369.4c24.3,0,46.4,8.2,70.6,8.2c0,18.6,0,37.1,0,55.7c-24.3,0-46.4-8.2-70.6-8.2
		c5.8-9.3,11.6-18.6,17.4-27.8C1000.1,388,994.3,378.7,988.5,369.4z"/>
	
		<linearGradient id="SVGID_24_" gradientUnits="userSpaceOnUse" x1="1035.0021" y1="586.9756" x2="1059.1656" y2="586.9756" gradientTransform="matrix(1 0 0 -1 0 979.2756)">
		<stop  offset="0" style="stop-color:#9C1C22"/>
		<stop  offset="1" style="stop-color:#B3232A"/>
	</linearGradient>
	<path class="st24" d="M1059.2,377.6v26c-7.3,1.9-13.9,3.4-13.9,3.4l-10.2-12.1C1035,394.9,1054.4,382.2,1059.2,377.6z"/>
	<path class="st0" d="M1035,394.9c95.1,0,115.6,15.3,210.7,15.3c0,18.6,0,37.1,0,55.7c-95.1,0-115.6-15.3-210.7-15.3
		C1035,432,1035,413.5,1035,394.9z"/>
</g>
<g>
	<path class="st0" d="M1291.4,580.9c-24.3,0-48.9,4.5-69-1.8c0,18.6,0.4,38.6,0.4,57.2c21.7,3,44.4,0.3,68.6,0.3
		c-5.8-9.3-11.6-18.6-17.4-27.8C1279.7,599.4,1285.6,590.2,1291.4,580.9z"/>
	
		<linearGradient id="SVGID_25_" gradientUnits="userSpaceOnUse" x1="1222.5537" y1="356.1756" x2="1246.4955" y2="356.1756" gradientTransform="matrix(1 0 0 -1 0 979.2756)">
		<stop  offset="0" style="stop-color:#9C1C22"/>
		<stop  offset="1" style="stop-color:#B3232A"/>
	</linearGradient>
	<path class="st25" d="M1222.6,610c0.1,8.9,0.2,17.7,0.2,26.2c0,0,21.6-15.5,23.8-18.1L1222.6,610z"/>
	<path class="st0" d="M989.3,521.6c24.3,0,46.4,8.2,70.6,8.2c0,18.6,0,37.1,0,55.7c-24.3,0-46.4-8.2-70.6-8.2
		c5.8-9.3,11.6-18.6,17.4-27.8C1001,540.2,995.1,530.9,989.3,521.6z"/>
	
		<linearGradient id="SVGID_26_" gradientUnits="userSpaceOnUse" x1="1035.8069" y1="434.6756" x2="1059.9705" y2="434.6756" gradientTransform="matrix(1 0 0 -1 0 979.2756)">
		<stop  offset="0" style="stop-color:#9C1C22"/>
		<stop  offset="1" style="stop-color:#B3232A"/>
	</linearGradient>
	<path class="st26" d="M1060,529.9v26c-7.3,1.9-13.9,3.4-13.9,3.4l-10.2-12.1C1035.8,547.2,1055.2,534.4,1060,529.9z"/>
	<path class="st0" d="M1035.8,547.2c95.1,0,115.6,15.3,210.7,15.3c0,18.6,0,37.1,0,55.7c-95.1,0-115.6-15.3-210.7-15.3
		C1035.8,584.3,1035.8,565.7,1035.8,547.2z"/>
</g>
<g>
	<path class="st0" d="M1308.7,735.7c-18.5,0-36.9,0-55.4,0c0,18.5,0,37.1,0,55.6c18.5,0,36.9,0,55.4,0c-4.7-9.3-9.4-18.5-14.1-27.8
		C1299.3,754.3,1304,745,1308.7,735.7z"/>
	
		<linearGradient id="SVGID_27_" gradientUnits="userSpaceOnUse" x1="1253.3" y1="193.0256" x2="1277.4529" y2="193.0256" gradientTransform="matrix(1 0 0 -1 0 979.2756)">
		<stop  offset="0" style="stop-color:#9C1C22"/>
		<stop  offset="1" style="stop-color:#B3232A"/>
	</linearGradient>
	<path class="st27" d="M1253.3,781.1c1.6,0,24.2,0,24.2,0c-8.1,3.4-16.1,6.8-24.2,10.3C1253.3,788,1253.3,784.6,1253.3,781.1z"/>
	<path class="st0" d="M1277.5,725.5c-18.5,0-36.9,0-55.4,0c0,18.5,0,37.1,0,55.6c18.5,0,36.9,0,55.4,0c0-9.3,0-18.5,0-27.8
		S1277.5,734.8,1277.5,725.5z"/>
	
		<linearGradient id="SVGID_28_" gradientUnits="userSpaceOnUse" x1="1222.0713" y1="203.2256" x2="1246.2241" y2="203.2256" gradientTransform="matrix(1 0 0 -1 0 979.2756)">
		<stop  offset="0" style="stop-color:#9C1C22"/>
		<stop  offset="1" style="stop-color:#B3232A"/>
	</linearGradient>
	<path class="st28" d="M1222.1,770.9c1.6,0,24.2,0,24.2,0c-8.1,3.4-16.1,6.8-24.2,10.3C1222.1,777.7,1222.1,774.3,1222.1,770.9z"/>
	<path class="st0" d="M972,688.7c18.5,0,36.9,0,55.4,0c0,18.5,0,37.1,0,55.6c-18.5,0-36.9,0-55.4,0c4.7-9.3,9.4-18.5,14.1-27.8
		C981.4,707.2,976.7,697.9,972,688.7z"/>
	
		<linearGradient id="SVGID_29_" gradientUnits="userSpaceOnUse" x1="1003.2343" y1="240.0256" x2="1027.3876" y2="240.0256" gradientTransform="matrix(1 0 0 -1 0 979.2756)">
		<stop  offset="0" style="stop-color:#9C1C22"/>
		<stop  offset="1" style="stop-color:#B3232A"/>
	</linearGradient>
	<path class="st29" d="M1027.4,734.1c-1.6,0-24.2,0-24.2,0c8.1,3.4,16.1,6.8,24.2,10.3C1027.4,740.9,1027.4,737.5,1027.4,734.1z"/>
	<path class="st0" d="M1003.2,678.4c18.5,0,36.9,0,55.4,0c0,18.5,0,37.1,0,55.6c-18.5,0-36.9,0-55.4,0c0-9.3,0-18.5,0-27.8
		C1003.2,697,1003.2,687.7,1003.2,678.4z"/>
	
		<linearGradient id="SVGID_30_" gradientUnits="userSpaceOnUse" x1="1034.4685" y1="250.3256" x2="1058.6218" y2="250.3256" gradientTransform="matrix(1 0 0 -1 0 979.2756)">
		<stop  offset="0" style="stop-color:#9C1C22"/>
		<stop  offset="1" style="stop-color:#B3232A"/>
	</linearGradient>
	<path class="st30" d="M1058.6,723.8c-1.6,0-24.2,0-24.2,0c8.1,3.4,16.1,6.8,24.2,10.3C1058.6,730.6,1058.6,727.2,1058.6,723.8z"/>
	<path class="st0" d="M1034.5,668.1c87.7,0,124.1,47.1,211.8,47.1c0,18.5,0,37.1,0,55.6c-87.7,0-124.1-47.1-211.8-47.1
		C1034.5,705.2,1034.5,686.7,1034.5,668.1z"/>
</g>
<rect x="156.6" y="245.5" class="st31" width="260.7" height="16.9"/>
<text transform="matrix(1 0 0 1 156.5998 259.1797)" class="st32 st33">OBSEQUI PELS PARTICIPANTS</text>
<g>
	<polygon class="st0" points="486.3,133.8 413.5,133.8 413.5,189.5 486.3,189.5 468.9,161.7 	"/>
	<polygon class="st0" points="104.2,133.8 177,133.8 177,189.5 104.2,189.5 121.6,161.7 	"/>
	
		<linearGradient id="SVGID_31_" gradientUnits="userSpaceOnUse" x1="152.9303" y1="800.9342" x2="177.0938" y2="800.9342" gradientTransform="matrix(1 0 0 -1 0 979.2756)">
		<stop  offset="0" style="stop-color:#9C1C22"/>
		<stop  offset="1" style="stop-color:#B3232A"/>
	</linearGradient>
	<path class="st34" d="M177,167.2c-1.6,0-24.2,0-24.2,0l24.2,22.3V167.2z"/>
	
		<linearGradient id="SVGID_32_" gradientUnits="userSpaceOnUse" x1="413.5441" y1="800.9342" x2="437.7076" y2="800.9342" gradientTransform="matrix(1 0 0 -1 0 979.2756)">
		<stop  offset="0" style="stop-color:#9C1C22"/>
		<stop  offset="1" style="stop-color:#B3232A"/>
	</linearGradient>
	<path class="st35" d="M413.5,167.2c1.6,0,24.2,0,24.2,0l-24.2,22.3V167.2z"/>
	<polygon class="st0" points="152.9,111.5 295.3,111.5 437.7,111.5 437.7,167.2 295.3,167.2 152.9,167.2 	"/>
</g>
<rect x="249.2" y="133.8" class="st31" width="75.5" height="16.9"/>
<text transform="matrix(1 0 0 1 249.1871 147.471)" class="st32 st33">PODIUM</text>
</svg>
